<mxfile host="app.diagrams.net" modified="2023-08-30T00:29:43.369Z" agent="Mozilla/5.0 (Macintosh; Intel Mac OS X 10_15_7) AppleWebKit/537.36 (KHTML, like Gecko) Chrome/116.0.0.0 Safari/537.36" version="21.7.0" etag="05GXUSPdxe24qC-RoKT4" type="github">
  <diagram name="PÃ¡gina-1" id="fdnbRQGHdrDlv3xkgtDx">
    <mxGraphModel>
      <root>
        <mxCell id="0" />
        <mxCell id="1" parent="0" />
      </root>
    </mxGraphModel>
  </diagram>
</mxfile>
